<mxfile modified="2024-07-16T20:26:57.974Z" host="app.diagrams.net" agent="Mozilla/5.0 (Windows NT 10.0; Win64; x64) AppleWebKit/537.36 (KHTML, like Gecko) Chrome/126.0.0.0 Safari/537.36" etag="rCQGab_wwmPmW_JqBl0f" version="24.6.4" type="github">
  <diagram id="Ht1M8jgEwFfnCIfOTk4-" name="Page-1">
    <mxGraphModel dx="1687" dy="878" grid="1" gridSize="10" guides="1" tooltips="1" connect="1" arrows="1" fold="1" page="1" pageScale="1" pageWidth="1169" pageHeight="827" math="0" shadow="0">
      <root>
        <mxCell id="0" />
        <mxCell id="1" parent="0" />
        <mxCell id="UEzPUAAOIrF-is8g5C7q-88" value="" style="edgeStyle=orthogonalEdgeStyle;rounded=0;orthogonalLoop=1;jettySize=auto;html=1;endArrow=open;endFill=0;strokeWidth=2;" parent="1" target="UEzPUAAOIrF-is8g5C7q-77" edge="1">
          <mxGeometry relative="1" as="geometry">
            <mxPoint x="168" y="179" as="sourcePoint" />
          </mxGeometry>
        </mxCell>
        <mxCell id="UEzPUAAOIrF-is8g5C7q-89" value="" style="edgeStyle=orthogonalEdgeStyle;rounded=0;orthogonalLoop=1;jettySize=auto;html=1;endArrow=open;endFill=0;strokeWidth=2;" parent="1" target="UEzPUAAOIrF-is8g5C7q-79" edge="1">
          <mxGeometry relative="1" as="geometry">
            <Array as="points">
              <mxPoint x="248" y="350" />
            </Array>
            <mxPoint x="247.5" y="218" as="sourcePoint" />
          </mxGeometry>
        </mxCell>
        <mxCell id="UEzPUAAOIrF-is8g5C7q-90" value="" style="edgeStyle=orthogonalEdgeStyle;rounded=0;orthogonalLoop=1;jettySize=auto;html=1;endArrow=open;endFill=0;strokeWidth=2;" parent="1" target="UEzPUAAOIrF-is8g5C7q-80" edge="1">
          <mxGeometry relative="1" as="geometry">
            <mxPoint x="448" y="349" as="sourcePoint" />
          </mxGeometry>
        </mxCell>
        <mxCell id="UEzPUAAOIrF-is8g5C7q-91" value="" style="edgeStyle=orthogonalEdgeStyle;rounded=0;orthogonalLoop=1;jettySize=auto;html=1;endArrow=open;endFill=0;strokeWidth=2;" parent="1" target="UEzPUAAOIrF-is8g5C7q-81" edge="1">
          <mxGeometry relative="1" as="geometry">
            <mxPoint x="558" y="349" as="sourcePoint" />
          </mxGeometry>
        </mxCell>
        <mxCell id="UEzPUAAOIrF-is8g5C7q-92" value="" style="edgeStyle=orthogonalEdgeStyle;rounded=0;orthogonalLoop=1;jettySize=auto;html=1;endArrow=open;endFill=0;strokeWidth=2;" parent="1" target="UEzPUAAOIrF-is8g5C7q-82" edge="1">
          <mxGeometry relative="1" as="geometry">
            <mxPoint x="678" y="349" as="sourcePoint" />
          </mxGeometry>
        </mxCell>
        <mxCell id="sVOc8KLssvXFAC38Cked-2" value="AWS Cloud" style="points=[[0,0],[0.25,0],[0.5,0],[0.75,0],[1,0],[1,0.25],[1,0.5],[1,0.75],[1,1],[0.75,1],[0.5,1],[0.25,1],[0,1],[0,0.75],[0,0.5],[0,0.25]];outlineConnect=0;gradientColor=none;html=1;whiteSpace=wrap;fontSize=12;fontStyle=0;container=1;pointerEvents=0;collapsible=0;recursiveResize=0;shape=mxgraph.aws4.group;grIcon=mxgraph.aws4.group_aws_cloud_alt;strokeColor=#232F3E;fillColor=none;verticalAlign=top;align=left;spacingLeft=30;fontColor=#232F3E;dashed=0;" vertex="1" parent="1">
          <mxGeometry x="200" y="69" width="960" height="690" as="geometry" />
        </mxCell>
        <mxCell id="sVOc8KLssvXFAC38Cked-4" value="&lt;font style=&quot;font-size: 16px;&quot;&gt;&lt;b&gt;S3&amp;nbsp;&lt;/b&gt;&lt;/font&gt;&lt;b style=&quot;font-size: 16px; background-color: initial;&quot;&gt;bucket&lt;/b&gt;&lt;div&gt;&lt;div style=&quot;font-size: 16px;&quot;&gt;&lt;font style=&quot;font-size: 16px;&quot;&gt;&lt;b&gt;com template&lt;/b&gt;&lt;/font&gt;&lt;/div&gt;&lt;/div&gt;" style="sketch=0;outlineConnect=0;fontColor=#232F3E;gradientColor=none;fillColor=#7AA116;strokeColor=none;dashed=0;verticalLabelPosition=bottom;verticalAlign=top;align=center;html=1;fontSize=12;fontStyle=0;aspect=fixed;pointerEvents=1;shape=mxgraph.aws4.bucket;" vertex="1" parent="sVOc8KLssvXFAC38Cked-2">
          <mxGeometry x="102" y="130" width="75" height="78" as="geometry" />
        </mxCell>
        <mxCell id="sVOc8KLssvXFAC38Cked-3" value="" style="outlineConnect=0;dashed=0;verticalLabelPosition=bottom;verticalAlign=top;align=center;html=1;shape=mxgraph.aws3.template;fillColor=#759C3E;gradientColor=none;" vertex="1" parent="sVOc8KLssvXFAC38Cked-2">
          <mxGeometry x="124.5" y="156.5" width="30" height="40" as="geometry" />
        </mxCell>
        <mxCell id="sVOc8KLssvXFAC38Cked-5" value="&lt;font style=&quot;font-size: 16px;&quot;&gt;&lt;b&gt;Minha pilha&lt;/b&gt;&lt;/font&gt;" style="outlineConnect=0;dashed=0;verticalLabelPosition=bottom;verticalAlign=top;align=center;html=1;shape=mxgraph.aws3.stack_aws_cloudformation;fillColor=#759C3E;gradientColor=none;" vertex="1" parent="sVOc8KLssvXFAC38Cked-2">
          <mxGeometry x="252" y="130" width="90" height="78" as="geometry" />
        </mxCell>
        <mxCell id="sVOc8KLssvXFAC38Cked-6" value="&lt;font style=&quot;font-size: 16px;&quot;&gt;&lt;b&gt;VPC_template.json&lt;br&gt;Modelo no bucket S3&lt;/b&gt;&lt;/font&gt;" style="text;html=1;align=center;verticalAlign=middle;resizable=0;points=[];autosize=1;strokeColor=none;fillColor=none;" vertex="1" parent="sVOc8KLssvXFAC38Cked-2">
          <mxGeometry x="82" y="50" width="180" height="50" as="geometry" />
        </mxCell>
        <mxCell id="sVOc8KLssvXFAC38Cked-7" style="edgeStyle=orthogonalEdgeStyle;rounded=0;orthogonalLoop=1;jettySize=auto;html=1;entryX=0;entryY=0.5;entryDx=0;entryDy=0;entryPerimeter=0;strokeWidth=2;" edge="1" parent="sVOc8KLssvXFAC38Cked-2" source="sVOc8KLssvXFAC38Cked-4" target="sVOc8KLssvXFAC38Cked-5">
          <mxGeometry relative="1" as="geometry" />
        </mxCell>
        <mxCell id="sVOc8KLssvXFAC38Cked-9" value="" style="rounded=1;whiteSpace=wrap;html=1;" vertex="1" parent="sVOc8KLssvXFAC38Cked-2">
          <mxGeometry x="320" y="240" width="620" height="430" as="geometry" />
        </mxCell>
        <mxCell id="sVOc8KLssvXFAC38Cked-8" value="&lt;font style=&quot;font-size: 16px;&quot;&gt;&lt;b&gt;Amazon&lt;/b&gt;&lt;/font&gt;&lt;div style=&quot;font-size: 16px;&quot;&gt;&lt;font style=&quot;font-size: 16px;&quot;&gt;&lt;b&gt;VPC&lt;/b&gt;&lt;/font&gt;&lt;/div&gt;" style="outlineConnect=0;dashed=0;verticalLabelPosition=bottom;verticalAlign=top;align=center;html=1;shape=mxgraph.aws3.vpc;fillColor=#F58534;gradientColor=none;" vertex="1" parent="sVOc8KLssvXFAC38Cked-2">
          <mxGeometry x="570" y="192" width="67.5" height="81" as="geometry" />
        </mxCell>
        <mxCell id="sVOc8KLssvXFAC38Cked-11" value="&lt;font style=&quot;font-size: 16px;&quot;&gt;&lt;b&gt;Internet&amp;nbsp;&lt;/b&gt;&lt;/font&gt;&lt;div style=&quot;font-size: 16px;&quot;&gt;&lt;font style=&quot;font-size: 16px;&quot;&gt;&lt;b&gt;gateway&lt;/b&gt;&lt;/font&gt;&lt;/div&gt;" style="outlineConnect=0;dashed=0;verticalLabelPosition=bottom;verticalAlign=top;align=center;html=1;shape=mxgraph.aws3.internet_gateway;fillColor=#F58534;gradientColor=none;" vertex="1" parent="sVOc8KLssvXFAC38Cked-2">
          <mxGeometry x="430" y="196.5" width="69" height="72" as="geometry" />
        </mxCell>
        <mxCell id="sVOc8KLssvXFAC38Cked-12" value="&lt;font style=&quot;font-size: 16px;&quot;&gt;&lt;b&gt;CIDR Block: 10.0.0.0/16&lt;/b&gt;&lt;/font&gt;" style="text;html=1;align=center;verticalAlign=middle;resizable=0;points=[];autosize=1;strokeColor=none;fillColor=none;" vertex="1" parent="sVOc8KLssvXFAC38Cked-2">
          <mxGeometry x="710" y="268.5" width="200" height="30" as="geometry" />
        </mxCell>
        <mxCell id="sVOc8KLssvXFAC38Cked-13" style="edgeStyle=orthogonalEdgeStyle;rounded=0;orthogonalLoop=1;jettySize=auto;html=1;entryX=0.5;entryY=0;entryDx=0;entryDy=0;entryPerimeter=0;strokeWidth=2;" edge="1" parent="sVOc8KLssvXFAC38Cked-2" source="sVOc8KLssvXFAC38Cked-5" target="sVOc8KLssvXFAC38Cked-8">
          <mxGeometry relative="1" as="geometry" />
        </mxCell>
        <mxCell id="sVOc8KLssvXFAC38Cked-10" value="" style="rounded=1;whiteSpace=wrap;html=1;" vertex="1" parent="1">
          <mxGeometry x="538" y="401" width="580" height="310" as="geometry" />
        </mxCell>
        <mxCell id="sVOc8KLssvXFAC38Cked-16" value="&lt;b&gt;&lt;font style=&quot;font-size: 16px;&quot;&gt;Zona de Disponibilidade - 1&lt;/font&gt;&lt;/b&gt;" style="text;html=1;align=center;verticalAlign=middle;resizable=0;points=[];autosize=1;strokeColor=none;fillColor=none;" vertex="1" parent="1">
          <mxGeometry x="708" y="677" width="230" height="30" as="geometry" />
        </mxCell>
        <mxCell id="sVOc8KLssvXFAC38Cked-18" value="" style="rounded=1;whiteSpace=wrap;html=1;" vertex="1" parent="1">
          <mxGeometry x="578" y="440" width="200" height="230" as="geometry" />
        </mxCell>
        <mxCell id="sVOc8KLssvXFAC38Cked-19" value="" style="rounded=1;whiteSpace=wrap;html=1;" vertex="1" parent="1">
          <mxGeometry x="888" y="440" width="200" height="230" as="geometry" />
        </mxCell>
        <mxCell id="sVOc8KLssvXFAC38Cked-20" value="&lt;font style=&quot;font-size: 16px;&quot;&gt;&lt;b&gt;Tabela de rota&lt;/b&gt;&lt;/font&gt;&lt;div style=&quot;font-size: 16px;&quot;&gt;&lt;font style=&quot;font-size: 16px;&quot;&gt;&lt;b&gt;PÃºblica&lt;/b&gt;&lt;/font&gt;&lt;/div&gt;" style="text;html=1;align=center;verticalAlign=middle;resizable=0;points=[];autosize=1;strokeColor=none;fillColor=none;" vertex="1" parent="1">
          <mxGeometry x="608" y="451" width="130" height="50" as="geometry" />
        </mxCell>
        <mxCell id="sVOc8KLssvXFAC38Cked-22" value="&lt;b style=&quot;font-size: 16px;&quot;&gt;&lt;font style=&quot;font-size: 16px;&quot;&gt;Tabela de rota&lt;/font&gt;&lt;/b&gt;&lt;div style=&quot;font-size: 16px;&quot;&gt;&lt;b style=&quot;&quot;&gt;&lt;font style=&quot;font-size: 16px;&quot;&gt;Privada&lt;/font&gt;&lt;/b&gt;&lt;/div&gt;" style="text;html=1;align=center;verticalAlign=middle;resizable=0;points=[];autosize=1;strokeColor=none;fillColor=none;" vertex="1" parent="1">
          <mxGeometry x="923" y="451" width="130" height="50" as="geometry" />
        </mxCell>
        <mxCell id="sVOc8KLssvXFAC38Cked-23" value="&lt;b&gt;&lt;font style=&quot;font-size: 14px;&quot;&gt;Public subnet&lt;/font&gt;&lt;/b&gt;" style="points=[[0,0],[0.25,0],[0.5,0],[0.75,0],[1,0],[1,0.25],[1,0.5],[1,0.75],[1,1],[0.75,1],[0.5,1],[0.25,1],[0,1],[0,0.75],[0,0.5],[0,0.25]];outlineConnect=0;gradientColor=none;html=1;whiteSpace=wrap;fontSize=12;fontStyle=0;container=1;pointerEvents=0;collapsible=0;recursiveResize=0;shape=mxgraph.aws4.group;grIcon=mxgraph.aws4.group_security_group;grStroke=0;strokeColor=#7AA116;fillColor=#F2F6E8;verticalAlign=top;align=left;spacingLeft=30;fontColor=#248814;dashed=0;" vertex="1" parent="1">
          <mxGeometry x="588" y="521" width="180" height="130" as="geometry" />
        </mxCell>
        <mxCell id="sVOc8KLssvXFAC38Cked-24" value="&lt;b&gt;&lt;font style=&quot;font-size: 14px;&quot;&gt;Private subnet&lt;/font&gt;&lt;/b&gt;" style="points=[[0,0],[0.25,0],[0.5,0],[0.75,0],[1,0],[1,0.25],[1,0.5],[1,0.75],[1,1],[0.75,1],[0.5,1],[0.25,1],[0,1],[0,0.75],[0,0.5],[0,0.25]];outlineConnect=0;gradientColor=none;html=1;whiteSpace=wrap;fontSize=12;fontStyle=0;container=1;pointerEvents=0;collapsible=0;recursiveResize=0;shape=mxgraph.aws4.group;grIcon=mxgraph.aws4.group_security_group;grStroke=0;strokeColor=#00A4A6;fillColor=#E6F6F7;verticalAlign=top;align=left;spacingLeft=30;fontColor=#147EBA;dashed=0;" vertex="1" parent="1">
          <mxGeometry x="898" y="521" width="180" height="130" as="geometry" />
        </mxCell>
        <mxCell id="sVOc8KLssvXFAC38Cked-26" value="&lt;b&gt;&lt;font style=&quot;font-size: 16px;&quot;&gt;CIDR 10.0.0.1/24&lt;/font&gt;&lt;/b&gt;" style="text;html=1;align=center;verticalAlign=middle;resizable=0;points=[];autosize=1;strokeColor=none;fillColor=none;" vertex="1" parent="sVOc8KLssvXFAC38Cked-24">
          <mxGeometry x="15" y="60" width="150" height="30" as="geometry" />
        </mxCell>
        <mxCell id="sVOc8KLssvXFAC38Cked-25" value="&lt;b&gt;&lt;font style=&quot;font-size: 16px;&quot;&gt;CIDR 10.0.0.0/24&lt;/font&gt;&lt;/b&gt;" style="text;html=1;align=center;verticalAlign=middle;resizable=0;points=[];autosize=1;strokeColor=none;fillColor=none;" vertex="1" parent="1">
          <mxGeometry x="598" y="581" width="150" height="30" as="geometry" />
        </mxCell>
        <mxCell id="sVOc8KLssvXFAC38Cked-27" value="&lt;font style=&quot;font-size: 22px;&quot;&gt;&lt;b&gt;DIAGRAMA DE CRIAÃÃO DE PILHA VPC&lt;/b&gt;&lt;/font&gt;" style="text;html=1;align=center;verticalAlign=middle;resizable=0;points=[];autosize=1;strokeColor=none;fillColor=none;" vertex="1" parent="1">
          <mxGeometry x="355" y="13" width="450" height="40" as="geometry" />
        </mxCell>
        <mxCell id="sVOc8KLssvXFAC38Cked-28" value="&lt;b style=&quot;font-size: 16px;&quot;&gt;&lt;font style=&quot;font-size: 16px;&quot;&gt;AWS&lt;/font&gt;&lt;/b&gt;&lt;div style=&quot;font-size: 16px;&quot;&gt;&lt;b style=&quot;&quot;&gt;&lt;font style=&quot;font-size: 16px;&quot;&gt;Console&lt;br&gt;&lt;/font&gt;&lt;/b&gt;&lt;br&gt;&lt;/div&gt;" style="outlineConnect=0;dashed=0;verticalLabelPosition=bottom;verticalAlign=top;align=center;html=1;shape=mxgraph.aws3.management_console;fillColor=#F58534;gradientColor=none;" vertex="1" parent="1">
          <mxGeometry x="20" y="200" width="90" height="90" as="geometry" />
        </mxCell>
        <mxCell id="sVOc8KLssvXFAC38Cked-30" style="edgeStyle=orthogonalEdgeStyle;rounded=0;orthogonalLoop=1;jettySize=auto;html=1;strokeWidth=2;" edge="1" parent="1" source="sVOc8KLssvXFAC38Cked-29" target="sVOc8KLssvXFAC38Cked-28">
          <mxGeometry relative="1" as="geometry" />
        </mxCell>
        <mxCell id="sVOc8KLssvXFAC38Cked-29" value="&lt;b&gt;&lt;font style=&quot;font-size: 16px;&quot;&gt;User&lt;/font&gt;&lt;/b&gt;" style="verticalLabelPosition=bottom;html=1;verticalAlign=top;align=center;strokeColor=none;fillColor=#00BEF2;shape=mxgraph.azure.user;" vertex="1" parent="1">
          <mxGeometry x="20" y="480" width="90" height="90" as="geometry" />
        </mxCell>
        <mxCell id="sVOc8KLssvXFAC38Cked-31" style="edgeStyle=orthogonalEdgeStyle;rounded=0;orthogonalLoop=1;jettySize=auto;html=1;entryX=0.005;entryY=0.597;entryDx=0;entryDy=0;entryPerimeter=0;strokeWidth=2;" edge="1" parent="1" source="sVOc8KLssvXFAC38Cked-28" target="sVOc8KLssvXFAC38Cked-4">
          <mxGeometry relative="1" as="geometry" />
        </mxCell>
        <mxCell id="sVOc8KLssvXFAC38Cked-32" value="&lt;b style=&quot;font-size: 16px;&quot;&gt;&lt;font style=&quot;font-size: 16px;&quot;&gt;Cria e&amp;nbsp;&lt;/font&gt;&lt;/b&gt;&lt;div style=&quot;font-size: 16px;&quot;&gt;&lt;b style=&quot;&quot;&gt;&lt;font style=&quot;font-size: 16px;&quot;&gt;Configura&lt;/font&gt;&lt;/b&gt;&lt;/div&gt;" style="text;html=1;align=center;verticalAlign=middle;resizable=0;points=[];autosize=1;strokeColor=none;fillColor=none;" vertex="1" parent="1">
          <mxGeometry x="107" y="190" width="100" height="50" as="geometry" />
        </mxCell>
      </root>
    </mxGraphModel>
  </diagram>
</mxfile>
